#N canvas 555 172 678 461 10;
#X obj 84 373 udpsend;
#X msg 94 345 disconnect;
#X obj 84 401 tgl 15 0 empty empty empty 17 7 0 10 -262144 -1 -1 1
1;
#X obj 85 272 packOSC;
#X obj 82 56 bng 15 250 50 0 empty empty empty 17 7 0 10 -262144 -1
-1;
#X text 101 55 init;
#X msg 369 87 open 0;
#X msg 386 111 close;
#X floatatom 369 225 5 0 0 0 - - -, f 5;
#X obj 371 139 arduino;
#X floatatom 368 269 5 0 0 0 - - -, f 5;
#X obj 368 192 route 0;
#X msg 94 315 connect 192.168.88.2 8000;
#X obj 369 245 * 1023;
#X obj 366 324 s dist;
#X msg 102 137 sendtyped /0/position ff 0.5 0.5;
#X obj 369 165 route analog;
#X msg 112 164 sendtyped /0/scale ff 0.5 0.5;
#X obj 187 45 r dist;
#X obj 188 66 < 50;
#X floatatom 187 86 5 0 0 0 - - -, f 5;
#X msg 94 113 sendtyped /0/visible i \$1;
#X connect 0 0 2 0;
#X connect 1 0 0 0;
#X connect 3 0 0 0;
#X connect 4 0 21 0;
#X connect 4 0 15 0;
#X connect 4 0 17 0;
#X connect 6 0 9 0;
#X connect 7 0 9 0;
#X connect 8 0 13 0;
#X connect 9 0 16 0;
#X connect 10 0 14 0;
#X connect 11 0 8 0;
#X connect 12 0 0 0;
#X connect 13 0 10 0;
#X connect 15 0 3 0;
#X connect 16 0 11 0;
#X connect 17 0 3 0;
#X connect 18 0 19 0;
#X connect 19 0 20 0;
#X connect 20 0 21 0;
#X connect 21 0 3 0;
