#N canvas 535 132 540 402 10;
#X msg 48 65 open 0;
#X msg 65 89 close;
#X floatatom 47 195 5 0 0 0 - - -, f 5;
#X obj 47 117 arduino;
#X floatatom 47 243 5 0 0 0 - - -, f 5;
#X obj 47 170 route 0;
#X obj 47 217 * 1023;
#X obj 47 271 s dist;
#X obj 47 143 route analog;
#X obj 301 40 r dist;
#X text 44 22 Sensor;
#X text 313 21 Scale;
#X obj 171 176 video-player 192.168.88.4;
#X obj 301 62 t b a;
#X floatatom 350 93 5 0 0 0 - - -, f 5;
#X obj 301 109 -;
#X msg 301 83 130;
#X floatatom 337 153 5 0 0 0 - - -, f 5;
#X obj 301 132 /;
#X connect 0 0 3 0;
#X connect 1 0 3 0;
#X connect 2 0 6 0;
#X connect 3 0 8 0;
#X connect 4 0 7 0;
#X connect 5 0 2 0;
#X connect 6 0 4 0;
#X connect 8 0 5 0;
#X connect 9 0 13 0;
#X connect 13 0 16 0;
#X connect 13 1 14 0;
#X connect 14 0 15 1;
#X connect 15 0 18 0;
#X connect 16 0 15 0;
#X connect 16 0 18 1;
#X connect 18 0 17 0;
#X connect 18 0 12 5;
#X connect 18 0 12 6;
