#N canvas 601 110 678 461 10;
#X obj 38 339 udpsend;
#X msg 48 311 disconnect;
#X obj 38 367 tgl 15 0 empty empty empty 17 7 0 10 -262144 -1 -1 1
1;
#X obj 39 238 packOSC;
#X obj 36 22 bng 15 250 50 0 empty empty empty 17 7 0 10 -262144 -1
-1;
#X text 55 21 init;
#X msg 362 30 open 0;
#X msg 379 54 close;
#X floatatom 362 168 5 0 0 0 - - -, f 5;
#X obj 364 82 arduino;
#X floatatom 361 212 5 0 0 0 - - -, f 5;
#X obj 361 135 route 0;
#X msg 48 281 connect 192.168.88.2 8000;
#X obj 362 188 * 1023;
#X obj 199 104 r dist;
#X obj 359 267 s dist;
#X msg 36 47 sendtyped /0/visible i 1;
#X msg 49 75 sendtyped /0/position ff 0.5 0.5;
#X msg 91 130 130;
#X obj 94 159 -;
#X obj 94 181 / 130;
#X floatatom 156 189 5 0 0 0 - - -, f 5;
#X msg 92 210 sendtyped /0/scale ff \$1 \$1;
#X obj 90 103 tgl 15 0 empty empty empty 17 7 0 10 -262144 -1 -1 1
1;
#X obj 115 103 metro 30;
#X obj 362 108 route analog;
#X connect 0 0 2 0;
#X connect 1 0 0 0;
#X connect 3 0 0 0;
#X connect 4 0 16 0;
#X connect 4 0 17 0;
#X connect 6 0 9 0;
#X connect 7 0 9 0;
#X connect 8 0 13 0;
#X connect 9 0 25 0;
#X connect 10 0 15 0;
#X connect 11 0 8 0;
#X connect 12 0 0 0;
#X connect 13 0 10 0;
#X connect 14 0 19 1;
#X connect 16 0 3 0;
#X connect 17 0 3 0;
#X connect 18 0 19 0;
#X connect 19 0 20 0;
#X connect 20 0 21 0;
#X connect 21 0 22 0;
#X connect 22 0 3 0;
#X connect 23 0 24 0;
#X connect 24 0 18 0;
#X connect 25 0 11 0;
