#N canvas 838 418 540 402 10;
#X msg 48 65 open 0;
#X msg 65 89 close;
#X floatatom 47 195 5 0 0 0 - - -, f 5;
#X obj 47 117 arduino;
#X floatatom 47 243 5 0 0 0 - - -, f 5;
#X obj 47 170 route 0;
#X obj 47 217 * 1023;
#X obj 47 271 s dist;
#X obj 47 143 route analog;
#X obj 171 176 video-player 127.0.0.1;
#X msg 315 59 130;
#X obj 318 88 -;
#X obj 318 110 / 130;
#X floatatom 369 137 5 0 0 0 - - -, f 5;
#X obj 351 58 r dist;
#X msg 315 59 130;
#X obj 318 88 -;
#X obj 318 110 / 130;
#X text 44 22 Sensor;
#X text 313 21 Scale;
#X connect 0 0 3 0;
#X connect 1 0 3 0;
#X connect 2 0 6 0;
#X connect 3 0 8 0;
#X connect 4 0 7 0;
#X connect 5 0 2 0;
#X connect 6 0 4 0;
#X connect 8 0 5 0;
#X connect 10 0 11 0;
#X connect 11 0 12 0;
#X connect 12 0 13 0;
#X connect 12 0 9 5;
#X connect 12 0 9 6;
#X connect 14 0 16 1;
#X connect 15 0 16 0;
#X connect 16 0 17 0;
