#N canvas 262 414 542 355 10;
#X msg 59 65 open 0;
#X msg 73 90 close;
#X floatatom 58 203 5 0 0 0 - - -, f 5;
#X obj 58 118 arduino;
#X floatatom 57 247 5 0 0 0 - - -, f 5;
#X obj 58 171 route 0;
#X obj 58 223 * 1023;
#X obj 57 269 s dist;
#X obj 58 144 route analog;
#X obj 198 62 r dist;
#X obj 198 82 < 50;
#X floatatom 198 103 5 0 0 0 - - -, f 5;
#X obj 197 140 video-player 127.0.0.1;
#X text 57 26 Sensor;
#X text 199 27 Visible;
#X connect 0 0 3 0;
#X connect 1 0 3 0;
#X connect 2 0 6 0;
#X connect 3 0 8 0;
#X connect 4 0 7 0;
#X connect 5 0 2 0;
#X connect 6 0 4 0;
#X connect 8 0 5 0;
#X connect 9 0 10 0;
#X connect 10 0 11 0;
#X connect 11 0 12 1;
