#N canvas 757 117 516 489 10;
#X obj 107 114 arduino;
#X msg 107 33 devices;
#X obj 107 177 route analog;
#X floatatom 52 261 5 0 0 3 touch_0-5 - -, f 5;
#X floatatom 90 261 5 0 0 0 - - -, f 5;
#X floatatom 52 261 5 0 0 0 - - -, f 5;
#X floatatom 90 261 5 0 0 0 - - -, f 5;
#X floatatom 128 260 5 0 0 0 - - -, f 5;
#X floatatom 166 260 5 0 0 0 - - -, f 5;
#X floatatom 128 260 5 0 0 0 - - -, f 5;
#X floatatom 166 260 5 0 0 0 - - -, f 5;
#X floatatom 204 260 5 0 0 0 - - -, f 5;
#X floatatom 242 260 5 0 0 0 - - -, f 5;
#X floatatom 204 260 5 0 0 0 - - -, f 5;
#X floatatom 242 260 5 0 0 0 - - -, f 5;
#X floatatom 280 260 5 0 0 0 - - -, f 5;
#X floatatom 318 260 5 0 0 3 distance - -, f 5;
#X floatatom 280 260 5 0 0 0 - - -, f 5;
#X floatatom 318 260 5 0 0 0 - - -, f 5;
#X obj 107 210 route 0 1 2 3 4 4 5 9;
#X msg 136 73 open 2;
#X obj 122 146 print [test];
#X msg 198 72 close;
#X floatatom 319 338 5 0 0 1 cm - -, f 5;
#X obj 319 307 * 1000;
#X connect 0 0 2 0;
#X connect 1 0 0 0;
#X connect 2 0 19 0;
#X connect 16 0 24 0;
#X connect 19 0 3 0;
#X connect 19 1 4 0;
#X connect 19 2 7 0;
#X connect 19 3 8 0;
#X connect 19 4 11 0;
#X connect 19 5 12 0;
#X connect 19 6 15 0;
#X connect 19 7 16 0;
#X connect 20 0 0 0;
#X connect 22 0 0 0;
#X connect 24 0 23 0;
