#N canvas 367 100 973 641 10;
#X obj 58 504 udpsend;
#X msg 90 479 disconnect;
#X obj 58 398 packOSC;
#X obj 58 541 tgl 15 0 empty empty 1=connected 20 8 0 8 -262144 -45076
-1 1 1;
#X msg 68 457 connect 192.168.10.99 8000;
#X obj 128 400 print;
#X msg 59 261 send /\$1/visible \$2;
#X floatatom 48 18 5 0 10 0 - - -, f 5;
#X floatatom 117 199 5 0 1 0 - - -, f 5;
#X obj 59 231 pack f f;
#X msg 222 257 send /\$1/position \$2 \$3 \$4;
#X obj 223 229 pack f f f f;
#X obj 256 197 hsl 128 15 0.0001 0.9999 0 0 empty empty z: -24 6 0
10 -262144 -1 -1 8200 1;
#X obj 256 153 hsl 128 15 0.0001 0.9999 0 0 empty empty x: -24 6 0
10 -262144 -1 -1 3000 1;
#X obj 256 175 hsl 128 15 0.0001 0.9999 0 0 empty empty y: -24 6 0
10 -262144 -1 -1 3800 1;
#X text 10 18 id :;
#X text 219 50 [position];
#X text 55 52 [visible];
#X floatatom 103 421 5 0 0 0 - - -, f 5;
#X obj 223 68 tgl 15 0 empty empty empty 17 7 0 10 -262144 -1 -1 0
1;
#X obj 223 110 bng 15 250 50 0 empty empty empty 17 7 0 10 -262144
-1 -1;
#X obj 223 88 metro 500;
#X obj 59 72 tgl 15 0 empty empty empty 17 7 0 10 -262144 -1 -1 0 1
;
#X obj 59 114 bng 15 250 50 0 empty empty empty 17 7 0 10 -262144 -1
-1;
#X obj 59 92 metro 500;
#X obj 428 227 pack f f f f;
#X obj 461 195 hsl 128 15 0.0001 0.9999 0 0 empty empty z: -24 6 0
10 -262144 -1 -1 0 1;
#X obj 461 151 hsl 128 15 0.0001 0.9999 0 0 empty empty x: -24 6 0
10 -262144 -1 -1 0 1;
#X obj 461 173 hsl 128 15 0.0001 0.9999 0 0 empty empty y: -24 6 0
10 -262144 -1 -1 0 1;
#X obj 428 66 tgl 15 0 empty empty empty 17 7 0 10 -262144 -1 -1 0
1;
#X obj 428 108 bng 15 250 50 0 empty empty empty 17 7 0 10 -262144
-1 -1;
#X obj 428 86 metro 500;
#X obj 637 224 pack f f f f;
#X obj 670 192 hsl 128 15 0.0001 0.9999 0 0 empty empty z: -24 6 0
10 -262144 -1 -1 0 1;
#X obj 670 148 hsl 128 15 0.0001 0.9999 0 0 empty empty x: -24 6 0
10 -262144 -1 -1 0 1;
#X obj 670 170 hsl 128 15 0.0001 0.9999 0 0 empty empty y: -24 6 0
10 -262144 -1 -1 0 1;
#X obj 637 63 tgl 15 0 empty empty empty 17 7 0 10 -262144 -1 -1 0
1;
#X obj 637 105 bng 15 250 50 0 empty empty empty 17 7 0 10 -262144
-1 -1;
#X obj 637 83 metro 500;
#X text 424 48 [rotation];
#X msg 427 254 send /\$1/rotation \$2 \$3 \$4;
#X text 633 45 [scale];
#X msg 636 252 send /\$1/scale \$2 \$3 \$4;
#X connect 0 0 3 0;
#X connect 1 0 0 0;
#X connect 2 0 0 0;
#X connect 2 1 18 0;
#X connect 4 0 0 0;
#X connect 6 0 2 0;
#X connect 6 0 5 0;
#X connect 7 0 9 0;
#X connect 7 0 11 0;
#X connect 8 0 9 1;
#X connect 9 0 6 0;
#X connect 10 0 2 0;
#X connect 10 0 5 0;
#X connect 11 0 10 0;
#X connect 12 0 11 3;
#X connect 13 0 11 1;
#X connect 14 0 11 2;
#X connect 19 0 21 0;
#X connect 20 0 11 0;
#X connect 21 0 20 0;
#X connect 22 0 24 0;
#X connect 23 0 9 0;
#X connect 24 0 23 0;
#X connect 25 0 40 0;
#X connect 26 0 25 3;
#X connect 27 0 25 1;
#X connect 28 0 25 2;
#X connect 29 0 31 0;
#X connect 30 0 25 0;
#X connect 31 0 30 0;
#X connect 32 0 42 0;
#X connect 33 0 32 3;
#X connect 34 0 32 1;
#X connect 35 0 32 2;
#X connect 36 0 38 0;
#X connect 37 0 32 0;
#X connect 38 0 37 0;
#X connect 40 0 2 0;
#X connect 40 0 5 0;
#X connect 42 0 2 0;
#X connect 42 0 5 0;
