#N canvas 251 146 624 681 10;
#X obj 186 114 hsl 128 15 0 1 0 0 \$0-ui-pos_x \$0-ui-pos_x_set pos_x
50 6 0 10 -262144 -1 -1 5000 1;
#X obj 186 134 hsl 128 15 0 1 0 0 \$0-ui-pos_y \$0-ui-pos_y_set pos_y
50 6 0 10 -262144 -1 -1 8300 1;
#X text 0 2 :);
#X obj 41 74 hradio 15 1 0 5 \$0-ui-id \$0-ui-id-set id 0 -8 0 10 -262144
-1 -1 2;
#X obj 186 54 hsl 128 15 0 2 0 0 \$0-ui-scale_x \$0-ui-scale_x_set
scale_x 50 6 0 10 -262144 -1 -1 4300 1;
#X obj 186 74 hsl 128 15 0 2 0 0 \$0-ui-scale_y \$0-ui-scale_y_set
scale_y 50 6 0 10 -262144 -1 -1 10800 1;
#X text 588 645 :);
#X text 62 209 GUI i/f;
#X obj 41 94 tgl 15 0 \$0-ui-visible \$0-ui-visible-set visible 17
7 0 10 -262144 -1 -1 0 1;
#X obj 186 94 hsl 128 15 0 360 0 0 \$0-ui-rotation \$0-ui-rotation_set
rotation 50 6 0 10 -262144 -1 -1 6700 1;
#X obj 44 134 hsl 128 15 0 1 0 0 \$0-ui-jump \$0-ui-jump_set jump 50
6 0 10 -262144 -1 -1 4000 1;
#X obj 186 154 hsl 128 15 0 1 0 0 \$0-ui-alpha \$0-ui-alpha_set alpha
50 6 0 10 -262144 -1 -1 5300 1;
#X obj 44 154 hsl 128 15 0 1 0 0 \$0-ui-volume \$0-ui-volume_set volume
50 6 0 10 -262144 -1 -1 5600 1;
#X obj 41 114 tgl 15 0 \$0-ui-playstop \$0-ui-playstop_set play/stop
17 7 0 10 -262144 -1 -1 0 1;
#X obj 14 243 inlet;
#X obj 441 343 inlet;
#X obj 431 243 inlet;
#X obj 451 271 s \$0-pos_x;
#X msg 441 393 set \$1;
#X msg 431 293 set \$1;
#X msg 14 293 set \$1;
#X obj 244 443 inlet;
#X obj 234 343 inlet;
#X msg 244 493 set \$1;
#X msg 234 393 set \$1;
#X obj 254 371 s \$0-scale_x;
#X obj 44 543 inlet;
#X obj 254 543 inlet;
#X msg 44 593 set \$1;
#X msg 254 593 set \$1;
#X obj 274 571 s \$0-rotation;
#X obj 64 571 s \$0-jump;
#X obj 24 343 inlet;
#X msg 24 393 set \$1;
#X obj 44 371 s \$0-visible;
#X obj 34 443 inlet;
#X obj 451 443 inlet;
#X msg 34 493 set \$1;
#X msg 451 493 set \$1;
#X obj 224 243 inlet;
#X msg 224 293 set \$1;
#X obj 471 471 s \$0-alpha;
#X obj 54 471 s \$0-playstop;
#X obj 244 271 s \$0-volume;
#X obj 34 271 v \$0-id;
#X obj 461 371 v \$0-pos_y;
#X obj 264 471 v \$0-scale_y;
#X obj 14 315 s \$0-ui-id_set;
#X obj 224 315 s \$0-ui-volume_set;
#X obj 431 315 s \$0-ui-pos_x_set;
#X obj 441 415 s \$0-ui-pos_y_set;
#X obj 234 415 s \$0-ui-scale_x_set;
#X obj 24 415 s \$0-ui-visible_set;
#X obj 34 515 s \$0-ui-playstop_set;
#X obj 44 615 s \$0-ui-jump_set;
#X obj 254 615 s \$0-ui-rotation_set;
#X obj 244 515 s \$0-ui-scale_y_set;
#X obj 451 515 s \$0-ui-alpha_set;
#X obj 64 243 r \$0-ui-id;
#X obj 274 243 r \$0-ui-volume;
#X obj 481 243 r \$0-ui-pos_x;
#X obj 491 343 r \$0-ui-pos_y;
#X obj 284 343 r \$0-ui-scale_x;
#X obj 74 343 r \$0-ui-visible;
#X obj 84 443 r \$0-ui-playstop;
#X obj 294 443 r \$0-ui-scale_y;
#X obj 501 443 r \$0-ui-alpha;
#X obj 304 543 r \$0-ui-rotation;
#X obj 94 543 r \$0-ui-jump;
#N canvas 3 94 1031 701 guts 0;
#X obj 233 157 pack f f f;
#X obj 233 201 s \$0-packOSCmsgout;
#X obj 483 157 pack f f f;
#X obj 483 201 s \$0-packOSCmsgout;
#X text 231 20 position;
#X text 481 22 scale;
#X obj 483 223 print [videoplayer];
#X obj 233 223 print [videoplayer];
#X obj 19 156 s \$0-packOSCmsgout;
#X obj 19 112 pack f f;
#X obj 19 178 print [videoplayer];
#X text 18 24 visibility;
#X obj 19 51 r \$0-visible;
#X msg 233 179 sendtyped /\$3/position ff \$1 \$2;
#X msg 483 179 sendtyped /\$3/scale ff \$1 \$2;
#X obj 300 129 v \$0-id;
#X obj 233 47 r \$0-pos_x;
#X obj 483 47 r \$0-scale_x;
#X obj 550 129 v \$0-id;
#X obj 266 107 v \$0-pos_y;
#X obj 233 69 t a b b;
#X obj 516 107 v \$0-scale_y;
#X obj 483 69 t a b b;
#X obj 589 25 loadbang;
#X msg 589 47 1;
#X obj 589 69 v \$0-scale_y;
#X obj 326 25 loadbang;
#X obj 326 69 v \$0-pos_y;
#X msg 326 47 0.5;
#X obj 72 90 v \$0-id;
#X msg 19 134 sendtyped /\$2/visible i \$1;
#X obj 268 624 s \$0-packOSCmsgout;
#X obj 268 580 pack f f;
#X obj 268 519 r \$0-alpha;
#X text 269 490 alpha;
#X text 18 495 volume;
#X obj 268 646 print [videoplayer];
#X obj 19 624 s \$0-packOSCmsgout;
#X obj 19 580 pack f f;
#X obj 19 646 print [videoplayer];
#X obj 19 519 r \$0-volume;
#X obj 268 399 s \$0-packOSCmsgout;
#X obj 268 355 pack f f;
#X obj 268 421 print [videoplayer];
#X obj 321 333 v \$0-id;
#X obj 268 294 r \$0-rotation;
#X text 269 265 rotation;
#X obj 19 405 s \$0-packOSCmsgout;
#X obj 19 361 pack f f;
#X obj 19 427 print [videoplayer];
#X obj 19 300 r \$0-jump;
#X text 20 266 jump;
#X obj 268 316 t a b;
#X obj 268 541 t a b;
#X obj 19 541 t a b;
#X obj 19 322 t a b;
#X msg 268 377 sendtyped /\$2/rotation f \$1;
#X msg 268 602 sendtyped /\$2/alpha f \$1;
#X msg 19 602 sendtyped /\$2/volume f \$1;
#X msg 19 383 sendtyped /\$2/jump f \$1;
#X obj 321 558 v \$0-id;
#X obj 72 558 v \$0-id;
#X obj 72 339 v \$0-id;
#X obj 726 312 udpsend;
#X msg 746 290 disconnect;
#X obj 726 117 packOSC;
#X obj 726 334 tgl 15 0 empty empty 1=connected 20 8 0 8 -262144 -45076
-1 1 1;
#X floatatom 772 139 5 0 0 0 - - -, f 5;
#X obj 726 95 r \$0-packOSCmsgout;
#X obj 746 174 loadbang;
#X obj 746 196 symbol \$1;
#X msg 746 268 connect 192.168.88.4 8000;
#X msg 778 240 set connect \, add2 \$1 \, add2 8000;
#X obj 746 218 t b a;
#X obj 854 213 s \$0-ipaddr;
#X obj 511 504 s \$0-packOSCmsgout;
#X obj 511 374 r \$0-playstop;
#X obj 511 396 tgl 15 0 empty empty empty 17 7 0 10 -262144 -1 -1 0
1;
#X text 758 68 OSC msg. out;
#X text 516 351 play/stop;
#X obj 726 354 sel 1 0;
#X obj 818 404 print [videoplayer];
#X obj 511 526 print [videoplayer];
#X msg 726 376 connected!;
#X msg 818 371 NOT connected!;
#X msg 511 482 send /\$1/play;
#X obj 511 416 sel 1 0;
#X obj 511 438 v \$0-id;
#X obj 534 460 v \$0-id;
#X msg 654 477 send /\$1/stop;
#X obj 654 499 s \$0-packOSCmsgout;
#X obj 654 521 print [videoplayer];
#X obj 19 73 t a b;
#X connect 0 0 13 0;
#X connect 2 0 14 0;
#X connect 9 0 30 0;
#X connect 12 0 92 0;
#X connect 13 0 1 0;
#X connect 13 0 7 0;
#X connect 14 0 3 0;
#X connect 14 0 6 0;
#X connect 15 0 0 2;
#X connect 16 0 20 0;
#X connect 17 0 22 0;
#X connect 18 0 2 2;
#X connect 19 0 0 1;
#X connect 20 0 0 0;
#X connect 20 1 19 0;
#X connect 20 2 15 0;
#X connect 21 0 2 1;
#X connect 22 0 2 0;
#X connect 22 1 21 0;
#X connect 22 2 18 0;
#X connect 23 0 24 0;
#X connect 24 0 25 0;
#X connect 26 0 28 0;
#X connect 28 0 27 0;
#X connect 29 0 9 1;
#X connect 30 0 8 0;
#X connect 30 0 10 0;
#X connect 32 0 57 0;
#X connect 33 0 53 0;
#X connect 38 0 58 0;
#X connect 40 0 54 0;
#X connect 42 0 56 0;
#X connect 44 0 42 1;
#X connect 45 0 52 0;
#X connect 48 0 59 0;
#X connect 50 0 55 0;
#X connect 52 0 42 0;
#X connect 52 1 44 0;
#X connect 53 0 32 0;
#X connect 53 1 60 0;
#X connect 54 0 38 0;
#X connect 54 1 61 0;
#X connect 55 0 48 0;
#X connect 55 1 62 0;
#X connect 56 0 41 0;
#X connect 56 0 43 0;
#X connect 57 0 31 0;
#X connect 57 0 36 0;
#X connect 58 0 37 0;
#X connect 58 0 39 0;
#X connect 59 0 47 0;
#X connect 59 0 49 0;
#X connect 60 0 32 1;
#X connect 61 0 38 1;
#X connect 62 0 48 1;
#X connect 63 0 66 0;
#X connect 64 0 63 0;
#X connect 65 0 63 0;
#X connect 65 1 67 0;
#X connect 66 0 80 0;
#X connect 68 0 65 0;
#X connect 69 0 70 0;
#X connect 70 0 73 0;
#X connect 70 0 74 0;
#X connect 71 0 63 0;
#X connect 72 0 71 0;
#X connect 73 0 71 0;
#X connect 73 1 72 0;
#X connect 76 0 77 0;
#X connect 77 0 86 0;
#X connect 80 0 83 0;
#X connect 80 1 84 0;
#X connect 83 0 81 0;
#X connect 84 0 81 0;
#X connect 85 0 75 0;
#X connect 85 0 82 0;
#X connect 86 0 87 0;
#X connect 86 1 88 0;
#X connect 87 0 85 0;
#X connect 88 0 89 0;
#X connect 89 0 90 0;
#X connect 89 0 91 0;
#X connect 92 0 9 0;
#X connect 92 1 29 0;
#X restore 468 102 pd guts;
#X connect 14 0 20 0;
#X connect 14 0 44 0;
#X connect 15 0 18 0;
#X connect 15 0 45 0;
#X connect 16 0 17 0;
#X connect 16 0 19 0;
#X connect 18 0 50 0;
#X connect 19 0 49 0;
#X connect 20 0 47 0;
#X connect 21 0 23 0;
#X connect 21 0 46 0;
#X connect 22 0 24 0;
#X connect 22 0 25 0;
#X connect 23 0 56 0;
#X connect 24 0 51 0;
#X connect 26 0 28 0;
#X connect 26 0 31 0;
#X connect 27 0 29 0;
#X connect 27 0 30 0;
#X connect 28 0 54 0;
#X connect 29 0 55 0;
#X connect 32 0 33 0;
#X connect 32 0 34 0;
#X connect 33 0 52 0;
#X connect 35 0 37 0;
#X connect 35 0 42 0;
#X connect 36 0 38 0;
#X connect 36 0 41 0;
#X connect 37 0 53 0;
#X connect 38 0 57 0;
#X connect 39 0 40 0;
#X connect 39 0 43 0;
#X connect 40 0 48 0;
#X connect 58 0 44 0;
#X connect 59 0 43 0;
#X connect 60 0 17 0;
#X connect 61 0 45 0;
#X connect 62 0 25 0;
#X connect 63 0 34 0;
#X connect 64 0 42 0;
#X connect 65 0 46 0;
#X connect 66 0 41 0;
#X connect 67 0 30 0;
#X connect 68 0 31 0;
#X coords 0 -1 1 1 300 150 1 30 30;
