#N canvas 13 107 1165 780 10;
#X obj 70 593 udpsend;
#X msg 102 568 disconnect;
#X obj 70 487 packOSC;
#X obj 70 630 tgl 15 0 empty empty 1=connected 20 8 0 8 -262144 -45076
-1 1 1;
#X floatatom 69 95 5 0 10 0 - - -, f 5;
#X floatatom 123 267 5 0 1 0 - - -, f 5;
#X obj 70 297 pack f f;
#X obj 302 222 hsl 128 15 0 1 0 0 empty empty x: -24 6 0 10 -262144
-1 -1 6350 1;
#X obj 302 244 hsl 128 15 0 1 0 0 empty empty y: -24 6 0 10 -262144
-1 -1 6350 1;
#X text 31 65 id :;
#X text 265 142 [position];
#X text 66 141 [visible];
#X floatatom 115 510 5 0 0 0 - - -, f 5;
#X obj 269 160 tgl 15 0 empty empty empty 17 7 0 10 -262144 -1 -1 0
1;
#X obj 269 202 bng 15 250 50 0 empty empty empty 17 7 0 10 -262144
-1 -1;
#X obj 70 159 bng 15 250 50 0 empty empty empty 17 7 0 10 -262144 -1
-1;
#X obj 536 223 hsl 128 15 0 360 0 0 empty empty x: -24 6 0 10 -262144
-1 -1 0 1;
#X obj 503 161 tgl 15 0 empty empty empty 17 7 0 10 -262144 -1 -1 0
1;
#X obj 503 203 bng 15 250 50 0 empty empty empty 17 7 0 10 -262144
-1 -1;
#X obj 744 221 hsl 128 15 0 2 0 0 empty empty x: -24 6 0 10 -262144
-1 -1 6350 1;
#X obj 744 243 hsl 128 15 0 2 0 0 empty empty y: -24 6 0 10 -262144
-1 -1 6350 1;
#X obj 711 159 tgl 15 0 empty empty empty 17 7 0 10 -262144 -1 -1 0
1;
#X obj 711 201 bng 15 250 50 0 empty empty empty 17 7 0 10 -262144
-1 -1;
#X text 499 143 [rotation];
#X text 707 141 [scale];
#X msg 70 351 sendtyped /\$1/visible i \$2;
#X obj 269 298 pack f f f;
#X obj 503 299 pack f f;
#X msg 503 350 sendtyped /\$1/rotation f \$2;
#X msg 269 351 sendtyped /\$1/position ff \$2 \$3;
#X obj 711 297 pack f f f;
#X obj 503 181 metro 30;
#X obj 269 180 metro 30;
#X obj 711 179 metro 30;
#X msg 711 349 sendtyped /\$1/scale ff \$2 \$3;
#X obj 957 221 hsl 128 15 0 1 0 0 empty empty x: -24 6 0 10 -262144
-1 -1 12700 1;
#X obj 924 159 tgl 15 0 empty empty empty 17 7 0 10 -262144 -1 -1 0
1;
#X obj 924 201 bng 15 250 50 0 empty empty empty 17 7 0 10 -262144
-1 -1;
#X obj 924 297 pack f f;
#X obj 924 179 metro 30;
#X text 920 141 [alpha];
#X msg 924 348 sendtyped /\$1/alpha f \$2;
#X obj 711 323 spigot;
#X obj 503 325 spigot;
#X obj 924 320 spigot;
#X obj 270 324 spigot;
#X obj 510 471 bng 15 250 50 0 empty empty empty 17 7 0 10 -262144
-1 -1;
#X text 504 444 [play];
#X obj 510 507 pack f;
#X obj 764 524 hsl 128 15 0 180 0 0 empty empty x: -24 6 0 10 -262144
-1 -1 0 1;
#X obj 731 462 tgl 15 0 empty empty empty 17 7 0 10 -262144 -1 -1 0
1;
#X obj 731 504 bng 15 250 50 0 empty empty empty 17 7 0 10 -262144
-1 -1;
#X obj 731 600 pack f f;
#X obj 731 623 spigot;
#X text 727 444 [jump];
#X msg 731 651 sendtyped /\$1/jump f \$2;
#X obj 624 471 bng 15 250 50 0 empty empty empty 17 7 0 10 -262144
-1 -1;
#X obj 624 507 pack f;
#X text 618 444 [stop];
#X msg 510 528 send /\$1/play;
#X msg 624 527 send /\$1/stop;
#X obj 732 482 metro 500;
#X obj 949 522 hsl 128 15 0 1 0 0 empty empty x: -24 6 0 10 -262144
-1 -1 12200 1;
#X obj 916 460 tgl 15 0 empty empty empty 17 7 0 10 -262144 -1 -1 0
1;
#X obj 916 502 bng 15 250 50 0 empty empty empty 17 7 0 10 -262144
-1 -1;
#X obj 916 598 pack f f;
#X obj 916 621 spigot;
#X obj 917 480 metro 500;
#X text 912 442 [volume];
#X msg 916 649 sendtyped /\$1/volume f \$2;
#X obj 69 63 hradio 15 1 0 8 empty empty empty 0 -8 0 10 -262144 -1
-1 0;
#X msg 80 546 connect 192.168.88.2 8000;
#X msg 407 193 0.5;
#X msg 643 195 0;
#X msg 843 197 1;
#X obj 454 98 bng 15 250 50 0 empty empty empty 17 7 0 10 -262144 -1
-1;
#X msg 124 238 1;
#X text 476 98 reset;
#X connect 0 0 3 0;
#X connect 1 0 0 0;
#X connect 2 0 0 0;
#X connect 2 1 12 0;
#X connect 4 0 6 0;
#X connect 4 0 26 0;
#X connect 4 0 27 0;
#X connect 4 0 30 0;
#X connect 4 0 38 0;
#X connect 4 0 48 0;
#X connect 4 0 57 0;
#X connect 4 0 52 0;
#X connect 4 0 65 0;
#X connect 5 0 6 1;
#X connect 6 0 25 0;
#X connect 7 0 26 1;
#X connect 8 0 26 2;
#X connect 13 0 32 0;
#X connect 13 0 45 1;
#X connect 14 0 26 0;
#X connect 15 0 6 0;
#X connect 16 0 27 1;
#X connect 17 0 31 0;
#X connect 17 0 43 1;
#X connect 18 0 27 0;
#X connect 19 0 30 1;
#X connect 20 0 30 2;
#X connect 21 0 33 0;
#X connect 21 0 42 1;
#X connect 22 0 30 0;
#X connect 25 0 2 0;
#X connect 26 0 45 0;
#X connect 27 0 43 0;
#X connect 28 0 2 0;
#X connect 29 0 2 0;
#X connect 30 0 42 0;
#X connect 31 0 18 0;
#X connect 32 0 14 0;
#X connect 33 0 22 0;
#X connect 34 0 2 0;
#X connect 35 0 38 1;
#X connect 36 0 39 0;
#X connect 36 0 44 1;
#X connect 37 0 38 0;
#X connect 38 0 44 0;
#X connect 39 0 37 0;
#X connect 41 0 2 0;
#X connect 42 0 34 0;
#X connect 43 0 28 0;
#X connect 44 0 41 0;
#X connect 45 0 29 0;
#X connect 46 0 48 0;
#X connect 48 0 59 0;
#X connect 49 0 52 1;
#X connect 50 0 53 1;
#X connect 50 0 61 0;
#X connect 51 0 52 0;
#X connect 52 0 53 0;
#X connect 53 0 55 0;
#X connect 55 0 2 0;
#X connect 56 0 57 0;
#X connect 57 0 60 0;
#X connect 59 0 2 0;
#X connect 60 0 2 0;
#X connect 61 0 51 0;
#X connect 62 0 65 1;
#X connect 63 0 66 1;
#X connect 63 0 67 0;
#X connect 64 0 65 0;
#X connect 65 0 66 0;
#X connect 66 0 69 0;
#X connect 67 0 64 0;
#X connect 69 0 2 0;
#X connect 70 0 4 0;
#X connect 71 0 0 0;
#X connect 72 0 7 0;
#X connect 72 0 8 0;
#X connect 73 0 16 0;
#X connect 74 0 35 0;
#X connect 74 0 19 0;
#X connect 74 0 20 0;
#X connect 75 0 76 0;
#X connect 75 0 72 0;
#X connect 75 0 73 0;
#X connect 75 0 74 0;
#X connect 76 0 5 0;
